<mxfile host="app.diagrams.net" modified="2023-02-23T10:13:27.201Z" agent="5.0 (Macintosh; Intel Mac OS X 10_15_7) AppleWebKit/537.36 (KHTML, like Gecko) Chrome/111.0.0.0 Safari/537.36 Edg/111.0.1660.13" etag="ECpUvwr7ikq5JNeH5n-v" version="20.8.23" type="github">
  <diagram name="第 1 页" id="WeU0UV5Vs4RiK9Gy6WtP">
    <mxGraphModel dx="739" dy="612" grid="1" gridSize="10" guides="1" tooltips="1" connect="1" arrows="1" fold="1" page="1" pageScale="1" pageWidth="827" pageHeight="1169" math="0" shadow="0">
      <root>
        <mxCell id="0" />
        <mxCell id="1" parent="0" />
        <mxCell id="Mg13thOmVDUa499xHJIR-3" style="edgeStyle=orthogonalEdgeStyle;rounded=0;orthogonalLoop=1;jettySize=auto;html=1;exitX=1;exitY=0.5;exitDx=0;exitDy=0;entryX=0;entryY=0.5;entryDx=0;entryDy=0;" edge="1" parent="1" source="Mg13thOmVDUa499xHJIR-1" target="Mg13thOmVDUa499xHJIR-2">
          <mxGeometry relative="1" as="geometry" />
        </mxCell>
        <mxCell id="Mg13thOmVDUa499xHJIR-1" value="Delete user button" style="rounded=0;whiteSpace=wrap;html=1;" vertex="1" parent="1">
          <mxGeometry x="120" y="210" width="120" height="60" as="geometry" />
        </mxCell>
        <mxCell id="Mg13thOmVDUa499xHJIR-7" style="edgeStyle=orthogonalEdgeStyle;rounded=0;orthogonalLoop=1;jettySize=auto;html=1;exitX=0;exitY=0;exitDx=0;exitDy=0;entryX=0.25;entryY=1;entryDx=0;entryDy=0;" edge="1" parent="1" source="Mg13thOmVDUa499xHJIR-2" target="Mg13thOmVDUa499xHJIR-6">
          <mxGeometry relative="1" as="geometry" />
        </mxCell>
        <mxCell id="Mg13thOmVDUa499xHJIR-8" style="edgeStyle=orthogonalEdgeStyle;rounded=0;orthogonalLoop=1;jettySize=auto;html=1;entryX=1;entryY=0;entryDx=0;entryDy=0;exitX=0.684;exitY=1.001;exitDx=0;exitDy=0;exitPerimeter=0;" edge="1" parent="1" source="Mg13thOmVDUa499xHJIR-6" target="Mg13thOmVDUa499xHJIR-2">
          <mxGeometry relative="1" as="geometry">
            <mxPoint x="400" y="120" as="sourcePoint" />
            <mxPoint x="410" y="230" as="targetPoint" />
          </mxGeometry>
        </mxCell>
        <mxCell id="Mg13thOmVDUa499xHJIR-14" style="edgeStyle=orthogonalEdgeStyle;rounded=0;orthogonalLoop=1;jettySize=auto;html=1;exitX=1;exitY=0.5;exitDx=0;exitDy=0;entryX=0;entryY=0.5;entryDx=0;entryDy=0;" edge="1" parent="1" source="Mg13thOmVDUa499xHJIR-2" target="Mg13thOmVDUa499xHJIR-13">
          <mxGeometry relative="1" as="geometry" />
        </mxCell>
        <mxCell id="Mg13thOmVDUa499xHJIR-20" style="edgeStyle=orthogonalEdgeStyle;rounded=0;orthogonalLoop=1;jettySize=auto;html=1;exitX=0.5;exitY=1;exitDx=0;exitDy=0;" edge="1" parent="1" source="Mg13thOmVDUa499xHJIR-2" target="Mg13thOmVDUa499xHJIR-18">
          <mxGeometry relative="1" as="geometry" />
        </mxCell>
        <mxCell id="Mg13thOmVDUa499xHJIR-2" value="Send Email System" style="ellipse;whiteSpace=wrap;html=1;aspect=fixed;" vertex="1" parent="1">
          <mxGeometry x="320" y="200" width="80" height="80" as="geometry" />
        </mxCell>
        <mxCell id="Mg13thOmVDUa499xHJIR-4" value="Delete success message" style="shape=card;whiteSpace=wrap;html=1;" vertex="1" parent="1">
          <mxGeometry x="640" y="200" width="120" height="80" as="geometry" />
        </mxCell>
        <mxCell id="Mg13thOmVDUa499xHJIR-6" value="User entity (database)" style="shape=partialRectangle;whiteSpace=wrap;html=1;left=0;right=0;fillColor=none;rounded=0;strokeColor=default;fontFamily=Helvetica;fontSize=12;fontColor=default;" vertex="1" parent="1">
          <mxGeometry x="300" y="40" width="130" height="50" as="geometry" />
        </mxCell>
        <mxCell id="Mg13thOmVDUa499xHJIR-9" value="user id" style="text;html=1;align=center;verticalAlign=middle;resizable=0;points=[];autosize=1;strokeColor=none;fillColor=none;" vertex="1" parent="1">
          <mxGeometry x="270" y="130" width="60" height="30" as="geometry" />
        </mxCell>
        <mxCell id="Mg13thOmVDUa499xHJIR-10" value="user email" style="text;html=1;align=center;verticalAlign=middle;resizable=0;points=[];autosize=1;strokeColor=none;fillColor=none;" vertex="1" parent="1">
          <mxGeometry x="390" y="130" width="80" height="30" as="geometry" />
        </mxCell>
        <mxCell id="Mg13thOmVDUa499xHJIR-24" style="edgeStyle=orthogonalEdgeStyle;rounded=0;orthogonalLoop=1;jettySize=auto;html=1;exitX=1;exitY=0.5;exitDx=0;exitDy=0;" edge="1" parent="1" source="Mg13thOmVDUa499xHJIR-13" target="Mg13thOmVDUa499xHJIR-4">
          <mxGeometry relative="1" as="geometry" />
        </mxCell>
        <mxCell id="Mg13thOmVDUa499xHJIR-30" style="edgeStyle=orthogonalEdgeStyle;rounded=0;orthogonalLoop=1;jettySize=auto;html=1;exitX=0.5;exitY=1;exitDx=0;exitDy=0;" edge="1" parent="1" source="Mg13thOmVDUa499xHJIR-13" target="Mg13thOmVDUa499xHJIR-27">
          <mxGeometry relative="1" as="geometry" />
        </mxCell>
        <mxCell id="Mg13thOmVDUa499xHJIR-13" value="Delete User&lt;br&gt;System" style="ellipse;whiteSpace=wrap;html=1;aspect=fixed;" vertex="1" parent="1">
          <mxGeometry x="480" y="200" width="80" height="80" as="geometry" />
        </mxCell>
        <mxCell id="Mg13thOmVDUa499xHJIR-15" value="user id" style="text;html=1;align=center;verticalAlign=middle;resizable=0;points=[];autosize=1;strokeColor=none;fillColor=none;" vertex="1" parent="1">
          <mxGeometry x="250" y="210" width="60" height="30" as="geometry" />
        </mxCell>
        <mxCell id="Mg13thOmVDUa499xHJIR-16" value="user email" style="text;html=1;align=center;verticalAlign=middle;resizable=0;points=[];autosize=1;strokeColor=none;fillColor=none;" vertex="1" parent="1">
          <mxGeometry x="280" y="300" width="80" height="30" as="geometry" />
        </mxCell>
        <mxCell id="Mg13thOmVDUa499xHJIR-18" value="Inform email to deleted user" style="shape=card;whiteSpace=wrap;html=1;" vertex="1" parent="1">
          <mxGeometry x="300" y="360" width="120" height="80" as="geometry" />
        </mxCell>
        <mxCell id="Mg13thOmVDUa499xHJIR-26" value="user id" style="text;html=1;align=center;verticalAlign=middle;resizable=0;points=[];autosize=1;strokeColor=none;fillColor=none;" vertex="1" parent="1">
          <mxGeometry x="410" y="210" width="60" height="30" as="geometry" />
        </mxCell>
        <mxCell id="Mg13thOmVDUa499xHJIR-27" value="User entity (database)" style="shape=partialRectangle;whiteSpace=wrap;html=1;left=0;right=0;fillColor=none;rounded=0;strokeColor=default;fontFamily=Helvetica;fontSize=12;fontColor=default;" vertex="1" parent="1">
          <mxGeometry x="450" y="370" width="140" height="50" as="geometry" />
        </mxCell>
        <mxCell id="Mg13thOmVDUa499xHJIR-31" value="search user id&lt;br&gt;AND&lt;br&gt;Delete user data" style="text;html=1;align=center;verticalAlign=middle;resizable=0;points=[];autosize=1;strokeColor=none;fillColor=none;" vertex="1" parent="1">
          <mxGeometry x="520" y="295" width="110" height="60" as="geometry" />
        </mxCell>
      </root>
    </mxGraphModel>
  </diagram>
</mxfile>
